<svg width="179" height="179" viewBox="0 0 179 179" fill="none" xmlns="http://www.w3.org/2000/svg">
<path d="M112.574 145.438C112.574 157.796 105.355 167.812 92.9961 167.812H46.8477C34.489 167.812 27.2695 157.796 27.2695 145.438M117.469 117.469C123.646 117.469 128.656 123.73 128.656 131.453C128.656 139.176 123.646 145.438 117.469 145.438H22.375C16.1974 145.438 11.1875 139.176 11.1875 131.453C11.1875 123.73 16.1974 117.469 22.375 117.469" stroke="#991F0E" stroke-width="11.1875" stroke-miterlimit="10" stroke-linecap="round"/>
<path d="M22.375 96.4922V96.4153C22.375 77.1868 38.1074 67.125 57.3359 67.125H82.5078C101.736 67.125 117.469 77.2637 117.469 96.4922V96.4153M84.2559 39.1562L86.857 61.5208M120.266 117.469H62.6885C61.9477 117.469 61.2373 117.763 60.7132 118.287L51.3331 127.667C51.2033 127.797 51.049 127.9 50.8793 127.97C50.7095 128.041 50.5275 128.077 50.3438 128.077C50.16 128.077 49.978 128.041 49.8082 127.97C49.6385 127.9 49.4842 127.797 49.3544 127.667L39.9743 118.287C39.4502 117.763 38.7398 117.469 37.999 117.469H19.5781C17.3528 117.469 15.2186 116.585 13.6451 115.011C12.0715 113.438 11.1875 111.303 11.1875 109.078V109.078C11.1875 106.853 12.0715 104.719 13.6451 103.145C15.2186 101.572 17.3528 100.688 19.5781 100.688H120.266C122.491 100.688 124.625 101.572 126.199 103.145C127.772 104.719 128.656 106.853 128.656 109.078C128.656 111.303 127.772 113.438 126.199 115.011C124.625 116.585 122.491 117.469 120.266 117.469Z" stroke="#991F0E" stroke-width="11.1875" stroke-miterlimit="10" stroke-linecap="round"/>
<path d="M89.5 167.812H138.204C141.027 167.812 143.745 166.746 145.814 164.826C147.882 162.906 149.149 160.275 149.36 157.461L161.869 39.1562" stroke="#991F0E" stroke-width="11.1875" stroke-miterlimit="10" stroke-linecap="round"/>
<path d="M128.656 39.1562L134.25 16.7812L150.682 11.1875" stroke="#991F0E" stroke-width="11.1875" stroke-linecap="round" stroke-linejoin="round"/>
<path d="M78.3125 39.1562H167.812" stroke="#991F0E" stroke-width="11.1875" stroke-miterlimit="10" stroke-linecap="round"/>
</svg>
